<?xml version="1.0" encoding="UTF-8" standalone="no"?>
<svg width="100%" height="100%" viewBox="0 0 48 48" version="1.1" xmlns="http://www.w3.org/2000/svg" xmlns:xlink="http://www.w3.org/1999/xlink" xml:space="preserve" xmlns:serif="http://www.serif.com/" style="fill-rule:evenodd;clip-rule:evenodd;stroke-linejoin:round;stroke-miterlimit:2;">
    <g transform="matrix(1,0,0,1,-936.023611,-516.023611)">
        <g transform="matrix(0.169333,0,0,0.169333,870,490)">
            <g transform="matrix(5.905512,0,0,5.905512,-1924.359085,-812.030135)">
                <circle cx="415.858" cy="187.504" r="23.976" style="fill:rgb(235,235,235);"/>
            </g>
            <g transform="matrix(0.122566,0,0,0.122566,408.929992,172.709519)">
                <g transform="matrix(-1.968014,0,-0,-1.968014,1687.886344,2869.819219)">
                    <path d="M504.391,610.407L504.391,899.809L595.766,990.873L595.766,701.471L504.391,610.407Z" style="fill:rgb(115,115,115);"/>
                </g>
                <g transform="matrix(-1.968014,0,-0,-1.968014,1687.886344,2280.310101)">
                    <path d="M504.391,705.76L504.391,899.193L595.766,990.257L595.766,705.76L504.391,705.76Z" style="fill:rgb(115,115,115);"/>
                </g>
                <g transform="matrix(1.968014,-0,0,1.945422,114.370109,-261.014862)">
                    <path d="M505.027,701.581L505.027,899.717L596.401,991.838L596.401,701.581L505.027,701.581Z" style="fill:rgb(255,167,3);"/>
                </g>
                <g transform="matrix(1.968014,-0,0,1.968014,114.370109,-867.492717)">
                    <path d="M505.027,702.765L505.027,896.151L596.401,987.262L596.401,702.765L505.027,702.765Z" style="fill:rgb(255,167,3);"/>
                </g>
                <g transform="matrix(-1.968014,0,-0,-1.968014,2475.987189,2476.216373)">
                    <path d="M503.756,705.802L503.756,898.254L595.13,990.226L595.13,705.802L503.756,705.802Z" style="fill:rgb(42,43,46);"/>
                </g>
                <g transform="matrix(-1.968014,0,-0,-1.968014,2475.987189,3065.725491)">
                    <path d="M503.756,703.989L503.756,898.445L595.13,990.811L595.13,703.989L503.756,703.989Z" style="fill:rgb(42,43,46);"/>
                </g>
                <g transform="matrix(0,1.968014,1.968014,-0,-672.835584,508.20214)">
                    <path d="M504.522,703.623L504.518,899.042L595.557,990.388L595.557,703.623L504.522,703.623Z" style="fill:rgb(42,43,46);"/>
                </g>
                <g transform="matrix(-0,-1.968014,-1.968014,0,2475.092037,2080.505953)">
                    <path d="M504.731,609.157L504.731,898.407L595.766,989.753L595.766,700.503L504.731,609.157Z" style="fill:rgb(42,43,46);"/>
                </g>
                <g transform="matrix(-0,-1.884265,-1.917734,0,2444.978566,1450.293193)">
                    <path d="M504.919,609.426L504.919,906.259L600,1000L600,703.166L504.919,609.426Z" style="fill:rgb(42,43,46);"/>
                </g>
            </g>
        </g>
    </g>
</svg>
