<?xml version="1.0" encoding="UTF-8" standalone="no"?>
<!DOCTYPE svg PUBLIC "-//W3C//DTD SVG 1.1//EN" "http://www.w3.org/Graphics/SVG/1.1/DTD/svg11.dtd">
<svg width="100%" height="100%" viewBox="0 0 49 49" version="1.1" xmlns="http://www.w3.org/2000/svg" xmlns:xlink="http://www.w3.org/1999/xlink" xml:space="preserve" xmlns:serif="http://www.serif.com/" style="fill-rule:evenodd;clip-rule:evenodd;stroke-linejoin:round;stroke-miterlimit:2;">
    <g transform="matrix(1,0,0,1,-0.000391,-0.0003)">
        <g transform="matrix(1,0,0,1,-1009.242924,-514.334813)">
            <g transform="matrix(0.064083,0,0,0.064083,886.235099,430.031748)">
                <circle cx="2294.029" cy="1690.049" r="374.515" style="fill:white;"/>
            </g>
            <g transform="matrix(0.077382,0,0,0.077382,994.423029,499.513927)">
                <g transform="matrix(0.237351,0,0,0.237351,501.968504,501.968504)">
                    <g transform="matrix(1,0,0,1,-862.5,-870.833333)">
                        <g transform="matrix(4.166667,0,0,4.166667,-1230.314963,-1221.927688)">
                            <g transform="matrix(26.301936,0,0,26.301936,82.404087,246.4452)">
                                <path d="M10.62,13.19C10.47,13.16 10.33,13.14 10.18,13.1C10.14,13.06 10.1,13.02 10.06,12.98C10.19,13.05 10.3,13.07 10.44,13.1C10.48,13.13 10.56,13.17 10.62,13.19M10.85,13.25L10.81,13.24M9.48,9.88C9.47,9.87 9.45,9.84 9.45,9.83C9.46,9.85 9.47,9.86 9.48,9.88ZM8.31,10.04C8.01,8.92 8.02,7.73 8.35,6.59C8.3,6.95 8.27,7.31 8.23,7.68C8.22,7.83 8.24,8.04 8.24,8.2C8.23,8.29 8.19,8.43 8.19,8.52L8.21,9.51C8.21,9.68 8.31,9.87 8.31,10.04ZM8.38,9.77C8.3,9.36 8.32,8.94 8.31,8.52C8.33,8.43 8.37,8.29 8.36,8.2L8.35,7.68C8.38,7.36 8.41,7.03 8.45,6.71L8.47,7.76C8.42,8.43 8.44,9.1 8.38,9.77ZM17.2,14.13C15.67,14.87 13.89,14.96 12.3,14.38C12.37,14.39 12.46,14.42 12.52,14.42C12.99,14.41 13.47,14.46 13.94,14.45L14.4,14.44C14.48,14.44 14.48,14.32 14.4,14.32L13.95,14.33C13.92,14.32 13.88,14.3 13.85,14.3C13.58,14.31 13.33,14.28 13.05,14.29C12.86,14.25 12.65,14.24 12.46,14.24C12.27,14.2 12.07,14.16 11.87,14.16C11.8,14.15 11.73,14.14 11.66,14.11C11.19,13.88 10.75,13.6 10.37,13.28C10.45,13.3 10.54,13.31 10.62,13.32C11.02,13.43 11.42,13.56 11.83,13.63C12.09,13.75 12.15,13.5 11.86,13.51C11.74,13.47 11.63,13.36 11.52,13.33C11.23,13.25 10.95,13.15 10.65,13.07C10.49,13 10.38,12.96 10.21,12.92C10.13,12.88 9.99,12.77 9.91,12.77C9.85,12.68 9.85,12.69 9.75,12.66C9.23,12.17 8.82,11.45 8.54,10.77C8.86,11.08 9.12,11.43 9.33,11.83C9.37,11.9 9.43,11.98 9.48,12.05C9.5,12.11 9.8,12.79 9.91,12.67C9.95,12.62 9.81,12.38 9.8,12.34C9.8,12.24 9.78,12.24 9.69,12.19C9.62,12.02 9.52,11.87 9.44,11.7C9.44,11.67 9.44,11.62 9.43,11.6C9.32,11.34 9.22,11.07 9.11,10.81C9.06,10.57 9.02,10.34 8.94,10.11C8.94,10.06 8.96,9.9 8.88,9.91C8.75,9.91 8.85,10.22 8.89,10.29C8.9,10.68 9.09,11.1 9.25,11.46C9.03,11.15 8.78,10.77 8.46,10.54C8.47,10.48 8.46,10.35 8.45,10.29C8.46,10.23 8.48,10.16 8.48,10.1C8.48,9.41 8.59,8.73 8.58,8.05C8.63,7.44 8.58,6.82 8.57,6.21C8.61,6.03 8.67,5.85 8.7,5.67C8.95,5.13 9.29,4.63 9.68,4.18C9.03,5.4 8.82,6.82 9.08,8.18L9.1,9.18C9.1,9.26 9.17,9.41 9.2,9.47C9.21,9.71 9.4,9.94 9.46,10.18C9.47,10.21 9.51,10.24 9.53,10.26C9.57,10.34 9.67,10.59 9.74,10.63C9.74,10.7 9.77,10.71 9.82,10.75C9.85,10.8 10.14,11.26 10.19,11.26C10.37,11.26 10.12,10.97 10.1,10.95C10.05,10.85 10.03,10.78 9.95,10.7C9.78,10.38 9.7,9.98 9.5,9.7C9.42,9.55 9.39,9.4 9.31,9.25L9.27,8.95C9.91,10.89 11.51,12.39 13.5,12.9C13.93,13.14 14.34,13.34 14.79,13.51C14.89,13.55 15.04,13.64 15.14,13.66C15.41,13.72 15.67,13.8 15.94,13.86C16.36,13.99 16.77,14.14 17.2,14.13ZM17.4,14L17.06,14.01C17.03,14 16.99,13.98 16.96,13.98C16.71,13.99 16.47,13.9 16.24,13.81C15.9,13.69 15.54,13.6 15.18,13.52C14.75,13.34 14.33,13.18 13.92,12.97C14.1,13 14.27,13.01 14.45,13.06C14.84,13.24 15.25,13.33 15.67,13.41L15.97,13.49C16.19,13.58 16.37,13.65 16.6,13.69L17.06,13.83C17.14,13.87 17.21,13.92 17.31,13.92C17.34,13.97 17.39,13.99 17.4,14ZM20.81,8.73C20.69,10.96 19.41,12.9 17.55,13.94C17.54,13.93 17.53,13.93 17.51,13.93C17.49,13.91 17.36,13.81 17.33,13.81C17.24,13.81 17.18,13.75 17.1,13.73C16.89,13.67 16.69,13.6 16.47,13.56C16.21,13.48 15.96,13.35 15.69,13.3L14.74,13.08L14.73,13.07C17.5,13.2 20.03,11.41 20.81,8.73Z" style="fill:rgb(255,221,0);"/>
                                <path d="M16,3.23C16.09,3.21 16.17,3.19 16.27,3.18C16.3,3.19 16.33,3.2 16.37,3.22C16.28,3.21 16.22,3.23 16.13,3.24C16.09,3.24 16.04,3.23 16,3.23M15.86,3.26L15.88,3.26M17.4,4.79C17.41,4.8 17.42,4.81 17.43,4.81C17.41,4.81 17.41,4.8 17.4,4.79ZM18,4.44C18.42,4.99 18.7,5.65 18.78,6.35C18.72,6.14 18.66,5.93 18.59,5.72C18.56,5.63 18.5,5.52 18.46,5.43C18.45,5.38 18.44,5.29 18.42,5.24L18.18,4.7C18.14,4.61 18.04,4.52 18,4.44ZM18.03,4.6C18.17,4.81 18.25,5.04 18.35,5.27C18.36,5.32 18.37,5.41 18.39,5.46L18.52,5.74C18.58,5.92 18.64,6.11 18.69,6.3L18.43,5.73C18.31,5.35 18.15,4.98 18.03,4.6ZM12.16,4.24C12.83,3.48 13.79,3.02 14.8,2.97C14.76,2.98 14.7,2.98 14.67,3C14.41,3.12 14.14,3.2 13.88,3.31L13.63,3.42C13.59,3.44 13.62,3.51 13.66,3.49L13.91,3.38C13.93,3.38 13.96,3.38 13.97,3.37C14.12,3.3 14.26,3.26 14.41,3.19C14.52,3.17 14.64,3.13 14.75,3.08C14.87,3.06 14.99,3.04 15.09,2.99C15.13,2.98 15.17,2.97 15.21,2.97C15.53,2.99 15.83,3.04 16.11,3.13C16.06,3.14 16.01,3.15 15.96,3.17C15.71,3.21 15.47,3.22 15.22,3.28C15.05,3.27 15.07,3.42 15.23,3.35C15.3,3.34 15.39,3.38 15.46,3.37C15.64,3.34 15.82,3.34 16,3.31C16.1,3.31 16.17,3.31 16.27,3.29C16.33,3.29 16.43,3.32 16.47,3.3C16.52,3.33 16.52,3.33 16.58,3.33C16.98,3.48 17.37,3.78 17.68,4.09C17.43,3.99 17.2,3.86 17,3.69C16.96,3.66 16.91,3.63 16.87,3.61C16.84,3.58 16.52,3.28 16.49,3.37C16.48,3.4 16.61,3.51 16.63,3.52C16.65,3.58 16.66,3.57 16.72,3.58C16.8,3.66 16.89,3.72 16.97,3.79C16.98,3.81 16.98,3.83 17,3.85C17.12,3.97 17.24,4.09 17.36,4.21C17.44,4.33 17.52,4.45 17.61,4.56C17.62,4.59 17.65,4.68 17.69,4.66C17.76,4.63 17.63,4.48 17.6,4.45C17.5,4.24 17.3,4.05 17.13,3.89C17.34,4 17.57,4.15 17.8,4.2C17.81,4.24 17.85,4.3 17.86,4.34C17.87,4.37 17.88,4.42 17.89,4.45C18.06,4.82 18.15,5.22 18.32,5.59C18.43,5.94 18.6,6.27 18.75,6.6C18.77,6.71 18.77,6.82 18.8,6.93C18.78,7.28 18.72,7.64 18.6,7.98C18.68,7.16 18.47,6.33 18.01,5.64L17.77,5.09C17.75,5.05 17.68,4.98 17.65,4.95C17.59,4.82 17.43,4.74 17.34,4.62C17.33,4.61 17.3,4.6 17.28,4.59C17.24,4.56 17.13,4.44 17.08,4.44C17.06,4.41 17.04,4.41 17,4.4C16.97,4.38 16.7,4.19 16.68,4.2C16.58,4.24 16.79,4.34 16.8,4.35C16.85,4.39 16.88,4.42 16.94,4.45C17.11,4.59 17.24,4.79 17.42,4.9C17.5,4.96 17.55,5.04 17.63,5.1L17.72,5.26C16.92,4.34 15.69,3.89 14.48,4.07C14.19,4.04 13.92,4.02 13.63,4.03C13.57,4.03 13.46,4.02 13.4,4.03C13.24,4.06 13.07,4.08 12.91,4.11C12.65,4.13 12.39,4.14 12.16,4.24ZM12.07,4.36L12.25,4.28C12.27,4.28 12.3,4.28 12.31,4.27C12.45,4.21 12.6,4.2 12.75,4.19C12.97,4.18 13.18,4.14 13.4,4.1C13.68,4.1 13.95,4.09 14.22,4.11C14.11,4.13 14.01,4.17 13.91,4.18C13.65,4.17 13.41,4.22 13.16,4.27L12.98,4.3C12.84,4.3 12.72,4.3 12.59,4.33L12.3,4.37C12.24,4.37 12.19,4.35 12.14,4.38C12.12,4.36 12.09,4.36 12.07,4.36ZM11.42,8.05C10.97,6.79 11.22,5.43 12,4.42L12.02,4.42C12.04,4.43 12.13,4.45 12.15,4.44C12.2,4.42 12.24,4.44 12.3,4.43C12.43,4.42 12.56,4.41 12.68,4.38C12.84,4.36 13.01,4.38 13.17,4.34L13.75,4.24L13.76,4.24C12.21,4.83 11.23,6.4 11.42,8.05Z" style="fill:rgb(0,173,238);"/>
                                <path d="M19.68,2.72C20.32,2.72 20.85,3.24 20.85,3.89C20.85,4.54 20.33,5.06 19.68,5.06C19.04,5.06 18.51,4.54 18.51,3.89C18.51,3.24 19.03,2.72 19.68,2.72" style="fill:rgb(235,0,139);"/>
                                <path d="M16.43,11.39C16.99,11.39 17.44,11.84 17.44,12.4C17.44,12.96 16.99,13.41 16.43,13.41C15.87,13.41 15.42,12.96 15.42,12.4C15.42,11.84 15.87,11.39 16.43,11.39" style="fill:rgb(255,221,0);"/>
                                <path d="M12.98,2.27C13.45,2.27 13.84,2.66 13.84,3.13C13.84,3.6 13.45,3.99 12.98,3.99C12.51,3.99 12.12,3.6 12.12,3.13C12.12,2.66 12.5,2.27 12.98,2.27" style="fill:rgb(0,173,238);"/>
                                <path d="M20.17,15.95C20.08,16.13 20.01,16.29 19.9,16.47C19.84,16.51 19.77,16.55 19.71,16.58C19.84,16.44 19.9,16.32 20,16.15C20.05,16.09 20.13,16.01 20.17,15.95M20.34,15.68L20.31,15.72M15.69,16.16C15.67,16.16 15.63,16.17 15.61,16.18C15.63,16.17 15.66,16.17 15.69,16.16ZM15.46,17.65C13.97,17.62 12.5,17.18 11.22,16.36C11.65,16.55 12.08,16.72 12.51,16.9C12.7,16.98 12.96,17.02 13.16,17.08C13.26,17.13 13.42,17.23 13.53,17.26L14.76,17.59C14.99,17.65 15.26,17.6 15.46,17.65ZM15.15,17.48C14.62,17.43 14.11,17.25 13.59,17.12C13.49,17.07 13.33,16.97 13.22,16.94L12.57,16.77C12.19,16.61 11.8,16.46 11.41,16.29L12.71,16.64C13.52,16.94 14.35,17.16 15.15,17.48ZM23.7,8.16C24.06,10.31 23.53,12.54 22.24,14.3C22.28,14.22 22.35,14.12 22.37,14.04C22.53,13.45 22.76,12.89 22.92,12.3L23.07,11.72C23.1,11.62 22.95,11.58 22.92,11.68L22.77,12.24C22.75,12.27 22.71,12.32 22.7,12.36C22.61,12.7 22.49,13 22.4,13.34C22.28,13.56 22.19,13.81 22.13,14.05C22.01,14.27 21.89,14.5 21.82,14.75C21.78,14.83 21.74,14.91 21.69,14.99C21.23,15.49 20.73,15.92 20.2,16.28C20.25,16.18 20.29,16.08 20.34,15.98C20.61,15.52 20.92,15.08 21.16,14.61C21.41,14.33 21.12,14.17 21.02,14.53C20.93,14.66 20.75,14.76 20.68,14.88C20.48,15.21 20.25,15.52 20.05,15.85C19.9,16.02 19.82,16.14 19.71,16.34C19.63,16.43 19.44,16.56 19.42,16.66C19.29,16.7 19.3,16.7 19.22,16.81C18.42,17.27 17.39,17.52 16.45,17.61C16.95,17.33 17.48,17.13 18.04,17.01C18.14,16.99 18.26,16.94 18.36,16.9C18.45,16.9 19.38,16.77 19.28,16.59C19.24,16.52 18.89,16.61 18.83,16.61C18.7,16.58 18.7,16.6 18.6,16.69C18.36,16.72 18.14,16.79 17.9,16.82C17.86,16.81 17.81,16.79 17.77,16.79C17.41,16.83 17.04,16.86 16.68,16.91C16.37,16.89 16.07,16.85 15.76,16.87C15.69,16.85 15.51,16.77 15.49,16.88C15.45,17.04 15.87,17.03 15.97,17.01C16.46,17.14 17.05,17.05 17.54,16.99C17.08,17.15 16.52,17.32 16.13,17.63C16.06,17.59 15.9,17.57 15.82,17.55C15.75,17.52 15.66,17.47 15.59,17.45C14.75,17.22 13.95,16.85 13.1,16.62C12.37,16.34 11.58,16.17 10.83,15.97C10.62,15.85 10.43,15.71 10.21,15.61C9.64,15.1 9.14,14.51 8.73,13.86C10,15.11 11.67,15.88 13.43,16.05L14.67,16.38C14.76,16.41 14.97,16.38 15.06,16.36C15.36,16.44 15.71,16.28 16.03,16.29C16.07,16.29 16.12,16.25 16.16,16.23C16.28,16.21 16.62,16.18 16.69,16.1C16.77,16.12 16.79,16.09 16.87,16.05C16.94,16.03 17.62,15.83 17.63,15.78C17.69,15.56 17.25,15.77 17.22,15.77C17.08,15.79 16.99,15.8 16.86,15.87C16.4,15.96 15.89,15.92 15.46,16.07C15.25,16.11 15.06,16.1 14.84,16.14L14.45,16.07C17.07,15.97 19.49,14.54 20.84,12.28C21.29,11.84 21.68,11.41 22.05,10.91C22.14,10.8 22.3,10.65 22.36,10.53C22.53,10.22 22.72,9.92 22.89,9.61C23.22,9.15 23.56,8.7 23.7,8.16ZM23.62,7.87L23.51,8.29C23.49,8.32 23.45,8.37 23.44,8.41C23.36,8.73 23.17,8.98 22.98,9.24C22.7,9.62 22.47,10.03 22.25,10.44C21.87,10.9 21.53,11.37 21.12,11.8C21.22,11.59 21.3,11.38 21.42,11.18C21.79,10.76 22.04,10.3 22.29,9.8L22.5,9.45C22.69,9.21 22.84,9.02 22.98,8.75L23.32,8.23C23.4,8.14 23.49,8.07 23.52,7.96C23.55,7.94 23.6,7.88 23.62,7.87ZM18.35,1.78C21.06,2.73 22.99,5.01 23.61,7.67C23.6,7.68 23.59,7.7 23.59,7.71C23.55,7.73 23.39,7.86 23.38,7.89C23.35,8 23.26,8.05 23.19,8.14C23.03,8.38 22.88,8.6 22.75,8.85C22.56,9.15 22.3,9.4 22.15,9.72L21.53,10.81L21.52,10.82C22.66,7.46 21.37,3.7 18.35,1.78Z" style="fill:rgb(235,0,139);"/>
                            </g>
                        </g>
                    </g>
                </g>
            </g>
        </g>
    </g>
</svg>
