<?xml version="1.0" encoding="UTF-8" standalone="no"?>
<!DOCTYPE svg PUBLIC "-//W3C//DTD SVG 1.1//EN" "http://www.w3.org/Graphics/SVG/1.1/DTD/svg11.dtd">
<svg width="100%" height="100%" viewBox="0 0 48 48" version="1.1" xmlns="http://www.w3.org/2000/svg" xmlns:xlink="http://www.w3.org/1999/xlink" xml:space="preserve" xmlns:serif="http://www.serif.com/" style="fill-rule:evenodd;clip-rule:evenodd;stroke-linejoin:round;stroke-miterlimit:2;">
    <g transform="matrix(1,0,0,1,-1009.242924,-514.334813)">
        <g>
            <g transform="matrix(0.064083,0,0,0.064083,886.235099,430.031748)">
                <circle cx="2294.029" cy="1690.049" r="374.515" style="fill:white;"/>
            </g>
            <g transform="matrix(0.111602,0,0,0.079078,974.921612,457.288985)">
                <g transform="matrix(0.665606,0,0,0.939679,204.363012,-465.11851)">
                    <path d="M348.898,1498.763C348.898,1427.46 406.787,1369.571 478.089,1369.571C549.392,1369.571 607.281,1427.46 607.281,1498.763L558.141,1498.763C558.141,1454.219 522.271,1418.056 478.089,1418.056C433.908,1418.056 398.038,1454.219 398.038,1498.763L348.898,1498.763Z" style="fill:rgb(142,110,83);"/>
                </g>
                <g transform="matrix(0.665606,0,0,0.939679,204.363012,-343.719686)">
                    <path d="M348.898,1498.763C348.898,1427.46 406.787,1369.571 478.089,1369.571C549.392,1369.571 607.281,1427.46 607.281,1498.763L558.141,1498.763C558.141,1454.219 522.271,1418.056 478.089,1418.056C433.908,1418.056 398.038,1454.219 398.038,1498.763L348.898,1498.763Z" style="fill:rgb(122,114,101);"/>
                </g>
                <g transform="matrix(0.665606,0,0,0.939679,204.363012,-222.320863)">
                    <path d="M348.898,1498.763C348.898,1427.46 406.787,1369.571 478.089,1369.571C549.392,1369.571 607.281,1427.46 607.281,1498.763L558.141,1498.763C558.141,1454.219 522.271,1418.056 478.089,1418.056C433.908,1418.056 398.038,1454.219 398.038,1498.763L348.898,1498.763Z" style="fill:rgb(192,183,177);"/>
                </g>
            </g>
        </g>
    </g>
</svg>
