<?xml version="1.0" encoding="UTF-8" standalone="no"?>
<!DOCTYPE svg PUBLIC "-//W3C//DTD SVG 1.1//EN" "http://www.w3.org/Graphics/SVG/1.1/DTD/svg11.dtd">
<svg width="100%" height="100%" viewBox="0 0 32 16" version="1.1" xmlns="http://www.w3.org/2000/svg" xmlns:xlink="http://www.w3.org/1999/xlink" xml:space="preserve" xmlns:serif="http://www.serif.com/" style="fill-rule:evenodd;clip-rule:evenodd;stroke-linejoin:round;stroke-miterlimit:2;">
    <g transform="matrix(1,0,0,1,-506.880124,-362.316916)">
        <g transform="matrix(0.995311,0,0,0.60892,0,0)">
            <g transform="matrix(0.072128,0,0,0.055005,463.939391,580.484925)">
                <path d="M851.319,264.175C924.548,264.175 989.475,300.162 1029.729,355.061C1057.968,393.574 1074.192,441.762 1074.192,493.133C1074.192,544.504 1057.968,592.693 1029.729,631.205C989.475,686.105 924.548,722.091 851.319,722.091C778.091,722.091 713.163,686.105 672.909,631.205C644.671,592.693 628.447,544.504 628.447,493.133C628.447,441.762 644.671,393.574 672.909,355.061C713.163,300.162 778.091,264.175 851.319,264.175ZM851.319,286.99C780.464,286.99 717.573,321.19 678.624,374.31C654.059,407.812 639.091,448.446 639.091,493.133C639.091,537.82 654.059,578.454 678.624,611.956C717.573,665.076 780.464,699.276 851.319,699.276C922.174,699.276 985.066,665.076 1024.015,611.956C1048.579,578.454 1063.547,537.82 1063.547,493.133C1063.547,448.446 1048.579,407.812 1024.015,374.31C985.066,321.19 922.174,286.99 851.319,286.99Z" style="fill:rgb(150,150,150);"/>
            </g>
        </g>
        <g transform="matrix(0.995311,0,0,0.60892,0,0)">
            <g transform="matrix(0.060657,0,0,0.055005,473.704848,580.484925)">
                <path d="M851.319,264.175C924.95,264.175 990.216,300.387 1030.69,355.588C1058.886,394.042 1075.198,441.84 1075.198,493.133C1075.198,544.426 1058.886,592.224 1030.69,630.678C990.216,685.879 924.95,722.091 851.319,722.091C777.688,722.091 712.423,685.879 671.948,630.678C643.752,592.224 627.44,544.426 627.44,493.133C627.44,441.84 643.752,394.042 671.948,355.588C712.423,300.387 777.688,264.175 851.319,264.175ZM851.319,286.99C780.867,286.99 718.313,320.964 679.585,373.783C654.979,407.342 640.098,448.369 640.098,493.133C640.098,537.897 654.979,578.924 679.585,612.484C718.313,665.302 780.867,699.276 851.319,699.276C921.772,699.276 984.325,665.302 1023.053,612.484C1047.66,578.924 1062.541,537.897 1062.541,493.133C1062.541,448.369 1047.66,407.342 1023.053,373.783C984.325,320.964 921.772,286.99 851.319,286.99Z" style="fill:rgb(150,150,150);"/>
            </g>
        </g>
        <g transform="matrix(0.995311,0,0,0.60892,0,0)">
            <g transform="matrix(0.043746,0,0,0.055005,488.101769,580.484925)">
                <path d="M851.319,264.175C976.774,264.175 1077.645,367.678 1077.645,493.133C1077.645,618.588 976.774,722.091 851.319,722.091C725.865,722.091 624.993,618.588 624.993,493.133C624.993,367.678 725.865,264.175 851.319,264.175ZM851.319,286.99C736.631,286.99 642.544,378.445 642.544,493.133C642.544,607.821 736.631,699.276 851.319,699.276C966.007,699.276 1060.094,607.821 1060.094,493.133C1060.094,378.445 966.007,286.99 851.319,286.99Z" style="fill:rgb(150,150,150);"/>
            </g>
        </g>
        <g transform="matrix(0.995311,0,0,0.60892,0,0)">
            <g transform="matrix(0.022895,0,0,0.055005,505.852843,580.484925)">
                <path d="M851.319,264.175C903.864,264.175 952.666,280.938 992.058,309.821C1048.49,351.198 1085.637,417.861 1085.637,493.133C1085.637,568.405 1048.49,635.068 992.058,676.445C952.666,705.329 903.864,722.091 851.319,722.091C798.775,722.091 749.973,705.329 710.58,676.445C654.149,635.068 617.001,568.405 617.001,493.133C617.001,417.861 654.149,351.198 710.58,309.821C749.973,280.938 798.775,264.175 851.319,264.175ZM851.319,286.99C807.808,286.99 767.784,301.421 735.163,325.34C683.575,363.165 650.536,424.322 650.536,493.133C650.536,561.944 683.575,623.101 735.163,660.926C767.784,684.845 807.808,699.276 851.319,699.276C894.831,699.276 934.855,684.845 967.475,660.926C1019.063,623.101 1052.102,561.944 1052.102,493.133C1052.102,424.322 1019.063,363.165 967.475,325.34C934.855,301.421 894.831,286.99 851.319,286.99Z" style="fill:rgb(150,150,150);"/>
            </g>
        </g>
        <g transform="matrix(0.995311,0,0,0.60892,0,0)">
            <g transform="matrix(0.072128,0,0,0.021762,463.939391,596.878163)">
                <path d="M851.319,246.749C936.149,246.749 1009.796,295.534 1046.356,366.027C1056.557,385.695 1064.033,407.61 1068.432,429.997C1072.396,450.173 1074.192,471.802 1074.192,493.133C1074.192,514.464 1072.396,536.093 1068.432,556.269C1064.033,578.656 1056.557,600.571 1046.356,620.24C1009.796,690.732 936.149,739.518 851.319,739.518C766.489,739.518 692.843,690.732 656.282,620.24C646.081,600.571 638.606,578.656 634.207,556.269C630.242,536.093 628.447,514.464 628.447,493.133C628.447,471.802 630.242,450.173 634.207,429.997C638.606,407.61 646.081,385.695 656.282,366.027C692.843,295.534 766.489,246.749 851.319,246.749ZM851.319,304.417C768.052,304.417 695.738,351.163 659.851,420.357C652.706,434.134 647.088,448.563 643.283,463.974C640.838,473.875 639.091,482.482 639.091,493.133C639.091,503.784 640.838,512.391 643.283,522.292C647.088,537.703 652.706,552.132 659.851,565.909C695.738,635.103 768.052,681.849 851.319,681.849C934.586,681.849 1006.9,635.103 1042.787,565.909C1049.933,552.132 1055.55,537.703 1059.356,522.292C1061.8,512.391 1063.547,503.784 1063.547,493.133C1063.547,482.482 1061.8,473.875 1059.356,463.974C1055.55,448.563 1049.933,434.134 1042.787,420.357C1006.9,351.163 934.586,304.417 851.319,304.417Z" style="fill:rgb(150,150,150);"/>
            </g>
        </g>
    </g>
</svg>
