<?xml version="1.0" encoding="UTF-8" standalone="no"?>
<svg width="100%" height="100%" viewBox="0 0 16 16" version="1.1" xmlns="http://www.w3.org/2000/svg" xmlns:xlink="http://www.w3.org/1999/xlink" xml:space="preserve" xmlns:serif="http://www.serif.com/" style="fill-rule:evenodd;clip-rule:evenodd;stroke-linejoin:round;stroke-miterlimit:2;">
    <g transform="matrix(1,0,0,1,-683.583333,-433.583333)">
        <g transform="matrix(0.48731,0,0,0.48731,350.466582,222.293993)">
            <g transform="matrix(0.09713,0,0,0.09713,626.789629,400.986757)">
                <path d="M753.734,335.597C847.017,335.597 922.751,411.331 922.751,504.614C922.751,597.897 847.017,673.631 753.734,673.631C660.451,673.631 584.717,597.897 584.717,504.614C584.717,411.331 660.451,335.597 753.734,335.597ZM753.734,344.176C665.186,344.176 593.297,416.066 593.297,504.614C593.297,593.162 665.186,665.051 753.734,665.051C842.282,665.051 914.172,593.162 914.172,504.614C914.172,416.066 842.282,344.176 753.734,344.176Z" style="fill:rgb(150,150,150);"/>
            </g>
            <g transform="matrix(0.065157,0,0,0.09713,650.889324,400.986757)">
                <path d="M753.734,335.597C791.832,335.597 827.15,347.849 855.712,368.791C897.511,399.44 924.856,448.859 924.856,504.614C924.856,560.369 897.511,609.788 855.712,640.436C827.15,661.379 791.832,673.631 753.734,673.631C715.636,673.631 680.318,661.379 651.756,640.436C609.957,609.788 582.612,560.369 582.612,504.614C582.612,448.859 609.957,399.44 651.756,368.791C680.318,347.849 715.636,335.597 753.734,335.597ZM753.734,344.176C719.099,344.176 687.158,355.544 661.193,374.582C621.201,403.905 595.402,451.27 595.402,504.614C595.402,557.957 621.201,605.322 661.193,634.645C687.158,653.684 719.099,665.051 753.734,665.051C788.369,665.051 820.31,653.684 846.275,634.645C886.267,605.322 912.066,557.957 912.066,504.614C912.066,451.27 886.267,403.905 846.275,374.582C820.31,355.544 788.369,344.176 753.734,344.176Z" style="fill:rgb(150,150,150);"/>
            </g>
            <g transform="matrix(0.032777,0,0,0.09713,675.294531,400.986757)">
                <path d="M753.734,335.597C784.528,335.597 814.475,342.673 840.064,355.945C893.809,383.82 931.173,439.937 931.173,504.614C931.173,569.29 893.809,625.408 840.064,653.282C814.475,666.554 784.528,673.631 753.734,673.631C722.94,673.631 692.994,666.554 667.404,653.282C613.659,625.408 576.295,569.29 576.295,504.614C576.295,439.937 613.659,383.82 667.404,355.945C692.994,342.673 722.94,335.597 753.734,335.597ZM753.734,344.176C738.588,344.176 724.251,346.802 710.622,351.343C695.161,356.494 680.904,364.035 668.022,373.48C627.683,403.058 601.719,450.806 601.719,504.614C601.719,558.421 627.683,606.169 668.022,635.747C680.904,645.192 695.161,652.733 710.622,657.885C724.251,662.425 738.588,665.051 753.734,665.051C768.88,665.051 783.217,662.425 796.846,657.885C812.307,652.733 826.564,645.192 839.446,635.747C879.785,606.169 905.749,558.421 905.749,504.614C905.749,450.806 879.785,403.058 839.446,373.48C826.564,364.035 812.307,356.494 796.846,351.343C783.217,346.802 768.88,344.176 753.734,344.176Z" style="fill:rgb(150,150,150);"/>
            </g>
            <g transform="matrix(0,0.023667,-0.09713,0,749.013243,432.161614)">
                <path d="M753.734,335.597C768.367,335.597 782.838,336.918 796.679,339.638C813.754,342.993 830.343,348.68 845.344,356.46C898.895,384.234 936.067,440.171 936.067,504.614C936.067,569.056 898.895,624.993 845.344,652.767C830.343,660.547 813.754,666.234 796.679,669.589C782.838,672.309 768.367,673.631 753.734,673.631C739.101,673.631 724.63,672.309 710.789,669.589C693.715,666.234 677.125,660.547 662.125,652.767C608.573,624.993 571.401,569.056 571.401,504.614C571.401,440.171 608.573,384.234 662.125,356.46C677.125,348.68 693.715,342.993 710.789,339.638C724.63,336.918 739.101,335.597 753.734,335.597ZM753.734,344.176C744.276,344.176 735.491,345.52 726.7,347.69C715.157,350.541 704.313,354.756 693.994,360.108C641.776,387.191 606.612,441.775 606.612,504.614C606.612,567.453 641.776,622.036 693.994,649.119C704.313,654.471 715.157,658.687 726.7,661.537C735.491,663.708 744.276,665.051 753.734,665.051C763.192,665.051 771.977,663.708 780.768,661.537C792.311,658.687 803.155,654.471 813.474,649.119C865.692,622.036 900.856,567.453 900.856,504.614C900.856,441.775 865.692,387.191 813.474,360.108C803.155,354.756 792.311,350.541 780.768,347.69C771.977,345.52 763.192,344.176 753.734,344.176Z" style="fill:rgb(150,150,150);"/>
            </g>
        </g>
    </g>
</svg>
