<?xml version="1.0" encoding="UTF-8" standalone="no"?>
<!DOCTYPE svg PUBLIC "-//W3C//DTD SVG 1.1//EN" "http://www.w3.org/Graphics/SVG/1.1/DTD/svg11.dtd">
<svg width="100%" height="100%" viewBox="0 0 1561 379" version="1.1" xmlns="http://www.w3.org/2000/svg" xmlns:xlink="http://www.w3.org/1999/xlink" xml:space="preserve" xmlns:serif="http://www.serif.com/" style="fill-rule:evenodd;clip-rule:evenodd;stroke-linejoin:round;stroke-miterlimit:2;">
    <g transform="matrix(1,0,0,1,-219.767414,-350.684515)">
        <g transform="matrix(0.780066,0,0,0.23402,176.863011,305.05884)">
            <path d="M1639.453,1014.73L1653.041,1105.953L1843.341,1105.953L2055.428,1812.909L1968.831,1812.909L1817.977,1310.065L1547.07,1310.065L1510.359,1428.552L1510.359,1812.909L1449.125,1812.909L1449.125,194.965L1510.359,194.965L1510.359,1105.953L1552.511,1105.953L1712.344,194.965L2055.428,194.965L2055.428,399.077L1747.469,399.077L1639.453,1014.73ZM661.304,194.965L661.304,399.077L164.366,399.077L114.619,570.882L114.619,729.898L164.369,901.894L661.303,901.894L661.303,1608.599L601.542,1812.909L55.086,1812.909L55.086,1608.756L550.238,1608.756L601.686,1436.617L601.686,1287.825L550.224,1105.953L55.001,1105.953L55.001,399.26L114.662,194.965L661.304,194.965ZM813.297,1812.909L752.064,1812.909L752.064,194.965L813.297,194.965L813.297,718.221L871.284,901.894L1239.146,901.894L1297.133,718.221L1297.133,194.965L1358.366,194.965L1358.366,1812.909L1297.133,1812.909L1297.133,1289.626L1239.146,1105.953L871.284,1105.953L813.297,1289.626L813.297,1812.909Z" style="fill:rgb(150,150,150);"/>
        </g>
    </g>
</svg>
