<?xml version="1.0" encoding="UTF-8" standalone="no"?>
<!DOCTYPE svg PUBLIC "-//W3C//DTD SVG 1.1//EN" "http://www.w3.org/Graphics/SVG/1.1/DTD/svg11.dtd">
<svg width="100%" height="100%" viewBox="0 0 89 128" version="1.1" xmlns="http://www.w3.org/2000/svg" xmlns:xlink="http://www.w3.org/1999/xlink" xml:space="preserve" xmlns:serif="http://www.serif.com/" style="fill-rule:evenodd;clip-rule:evenodd;stroke-linejoin:round;stroke-miterlimit:2;">
    <g transform="matrix(1,0,0,1,-72.462045,-208.450259)">
        <g transform="matrix(0.0512,0,0,0.0512,116.942045,272.450259)">
            <g transform="matrix(1,0,0,1,-868.75,-1250)">
                <g transform="matrix(4.166667,0,0,4.166667,0,0)">
                    <path d="M50.969,206.036C20.285,186.042 0,151.426 0,112.071C0,50.176 50.176,0 112.071,0L304.085,0C365.98,0 416.156,50.176 416.156,112.071C416.156,151.426 395.872,186.042 365.187,206.036C395.872,226.03 416.156,260.647 416.156,300.001C416.156,361.896 365.98,412.072 304.085,412.072L302.042,412.072C272.784,412.072 246.144,400.86 226.185,382.498L226.185,486.907C226.185,549.494 174.911,600 112.579,600C50.811,600 0,549.951 0,487.929C0,448.575 20.284,413.959 50.967,393.965C20.284,373.971 0,339.355 0,300.001C0,260.647 20.285,226.03 50.969,206.036ZM226.185,300.001C226.185,341.896 260.148,375.858 302.042,375.858L304.085,375.858C345.98,375.858 379.942,341.896 379.942,300.001C379.942,258.106 345.98,224.144 304.085,224.144L302.042,224.144C260.148,224.144 226.185,258.106 226.185,300.001ZM189.971,224.144L112.071,224.144C70.176,224.144 36.214,258.106 36.214,300.001C36.214,341.811 70.039,375.72 111.816,375.858L189.971,375.858L189.971,224.144ZM189.971,412.072L111.816,412.072C70.039,412.209 36.214,446.119 36.214,487.929C36.214,529.697 70.557,563.786 112.579,563.786C155.165,563.786 189.971,529.24 189.971,486.907L189.971,412.072ZM189.971,187.928L112.071,187.928C70.176,187.928 36.214,153.966 36.214,112.071C36.214,70.176 70.176,36.214 112.071,36.214L189.971,36.214L189.971,187.928ZM304.085,187.928L226.185,187.928L226.185,36.214L304.085,36.214C345.98,36.214 379.942,70.176 379.942,112.071C379.942,153.966 345.98,187.928 304.085,187.928Z" style="fill:rgb(150,150,150);"/>
                </g>
            </g>
        </g>
    </g>
</svg>
