<?xml version="1.0" encoding="UTF-8" standalone="no"?>
<!DOCTYPE svg PUBLIC "-//W3C//DTD SVG 1.1//EN" "http://www.w3.org/Graphics/SVG/1.1/DTD/svg11.dtd">
<svg width="100%" height="100%" viewBox="0 0 148 128" version="1.1" xmlns="http://www.w3.org/2000/svg" xmlns:xlink="http://www.w3.org/1999/xlink" xml:space="preserve" xmlns:serif="http://www.serif.com/" style="fill-rule:evenodd;clip-rule:evenodd;stroke-linejoin:round;stroke-miterlimit:2;">
    <g transform="matrix(1,0,0,1,-481.322539,-53.879181)">
        <g transform="matrix(0.047262,0,0,0.047262,476.399462,39.109945)">
            <g transform="matrix(104.166667,0,0,104.166667,0,0)">
                <path d="M18.679,15.976C18.679,14.541 17.48,13.379 16,13.379C14.521,13.379 13.321,14.541 13.321,15.976C13.321,17.41 14.521,18.573 16,18.573C17.48,18.573 18.679,17.41 18.679,15.976Z" style="fill:rgb(83,193,222);fill-rule:nonzero;"/>
            </g>
            <g transform="matrix(104.166667,0,0,104.166667,0,0)">
                <path d="M24.7,11.154C25.266,8.925 25.977,4.791 23.47,3.39C20.975,1.995 17.728,4.668 16.014,6.273C14.304,4.684 10.966,2.022 8.462,3.428C5.968,4.828 6.737,8.893 7.315,11.136C4.988,11.776 1,13.156 1,15.976C1,18.787 4.984,20.289 7.297,20.929C6.717,23.184 5.986,27.191 8.483,28.588C10.997,29.993 14.325,27.395 16.055,25.772C17.781,27.386 20.997,30.002 23.492,28.601C25.996,27.196 25.344,23.118 24.765,20.863C27.007,20.221 31,18.752 31,15.976C31,13.184 26.99,11.792 24.7,11.154ZM24.416,19.667C24.037,18.502 23.524,17.262 22.897,15.982C23.495,14.732 23.988,13.509 24.357,12.351C26.036,12.823 29.718,13.901 29.718,15.976C29.718,18.07 26.185,19.159 24.416,19.667ZM22.85,27.526C20.988,28.571 18.222,26.07 16.948,24.881C17.793,23.984 18.638,22.942 19.462,21.785C20.913,21.66 22.283,21.456 23.526,21.178C23.933,22.773 24.72,26.476 22.85,27.526ZM9.124,27.511C7.261,26.47 8.113,22.895 8.54,21.233C9.768,21.497 11.129,21.686 12.582,21.801C13.412,22.933 14.282,23.974 15.158,24.886C14.075,25.901 10.995,28.557 9.124,27.511ZM2.281,15.976C2.281,13.874 5.942,12.803 7.659,12.333C8.035,13.517 8.527,14.754 9.121,16.006C8.519,17.277 8.02,18.534 7.641,19.732C6.004,19.278 2.281,18.079 2.281,15.976ZM9.104,4.504C10.973,3.454 13.875,6.01 15.116,7.16C14.244,8.068 13.383,9.101 12.56,10.226C11.149,10.353 9.799,10.557 8.557,10.83C8.091,9.021 7.236,5.552 9.104,4.504ZM20.379,11.577C21.337,11.694 22.254,11.85 23.115,12.041C22.856,12.844 22.534,13.684 22.154,14.545C21.604,13.533 21.014,12.542 20.379,11.577ZM16.014,8.048C16.605,8.669 17.197,9.362 17.78,10.114C16.599,10.06 15.415,10.06 14.234,10.114C14.817,9.368 15.414,8.676 16.014,8.048ZM9.857,14.544C9.483,13.686 9.164,12.842 8.903,12.027C9.759,11.842 10.672,11.69 11.623,11.575C10.987,12.537 10.397,13.528 9.857,14.544ZM11.65,20.466C10.668,20.359 9.741,20.215 8.886,20.035C9.15,19.206 9.477,18.343 9.858,17.467C10.406,18.493 11.005,19.494 11.65,20.466ZM16.05,23.991C15.442,23.356 14.836,22.653 14.245,21.897C15.433,21.942 16.623,21.942 17.811,21.891C17.227,22.661 16.637,23.365 16.05,23.991ZM22.167,17.422C22.568,18.308 22.906,19.166 23.174,19.981C22.304,20.173 21.365,20.328 20.376,20.444C21.015,19.461 21.615,18.454 22.167,17.422ZM18.747,20.594C16.93,20.72 15.102,20.719 13.284,20.604C12.251,19.142 11.331,17.603 10.538,16.006C11.328,14.412 12.24,12.876 13.268,11.416C15.088,11.283 16.918,11.282 18.737,11.417C19.756,12.877 20.668,14.409 21.476,15.988C20.677,17.581 19.759,19.12 18.747,20.594ZM22.83,4.467C24.701,5.513 23.868,9.227 23.459,10.843C22.215,10.564 20.863,10.357 19.448,10.228C18.624,9.09 17.77,8.055 16.912,7.159C18.169,5.984 20.978,3.431 22.83,4.467Z" style="fill:rgb(83,193,222);"/>
            </g>
        </g>
    </g>
</svg>
